# WaveFront *.obj file (generated by CINEMA 4D)

mtllib ./cloth_stand.mtl

v -0.2015567868948 -7.00042581558228 0
v 12.02910041809082 -7.00042581558228 0
v -0.2015567868948 -7.25179386138916 0
v 12.02910041809082 -7.25179386138916 0
v -0.2015567868948 -7.17816972732544 -0.17774398624897
v 12.02910041809082 -7.17816972732544 -0.17774398624897
v -0.2015567868948 -7.00042581558228 -0.25136795639992
v 12.02910041809082 -7.00042581558228 -0.25136795639992
v -0.2015567868948 -6.82268190383911 -0.17774398624897
v 12.02910041809082 -6.82268190383911 -0.17774398624897
v -0.2015567868948 -6.74905776977539 -0
v 12.02910041809082 -6.74905776977539 -0
v -0.2015567868948 -6.82268190383911 0.17774398624897
v 12.02910041809082 -6.82268190383911 0.17774398624897
v -0.2015567868948 -7.00042581558228 0.25136795639992
v 12.02910041809082 -7.00042581558228 0.25136795639992
v -0.2015567868948 -7.17816972732544 0.17774398624897
v 12.02910041809082 -7.17816972732544 0.17774398624897
v -1.20444548130035 8.96908664703369 0
v 13.03198909759521 8.96908664703369 0
v -1.20444548130035 8.71771907806396 0
v 13.03198909759521 8.71771907806396 0
v -1.20444548130035 8.79134273529053 -0.17774398624897
v 13.03198909759521 8.79134273529053 -0.17774398624897
v -1.20444548130035 8.96908664703369 -0.25136795639992
v 13.03198909759521 8.96908664703369 -0.25136795639992
v -1.20444548130035 9.14683055877686 -0.17774398624897
v 13.03198909759521 9.14683055877686 -0.17774398624897
v -1.20444548130035 9.22045516967773 -0
v 13.03198909759521 9.22045516967773 -0
v -1.20444548130035 9.14683055877686 0.17774398624897
v 13.03198909759521 9.14683055877686 0.17774398624897
v -1.20444548130035 8.96908664703369 0.25136795639992
v 13.03198909759521 8.96908664703369 0.25136795639992
v -1.20444548130035 8.79134273529053 0.17774398624897
v 13.03198909759521 8.79134273529053 0.17774398624897
v 0.00517302332446 -8.93210029602051 -2.47144341468811
v 0.00517302332446 -8.93210029602051 2.47144341468811
v 0.25654098391533 -8.93210029602051 -2.47144341468811
v 0.25654098391533 -8.93210029602051 2.47144341468811
v 0.18291699886322 -8.75435638427734 -2.47144341468811
v 0.18291699886322 -8.75435638427734 2.47144341468811
v 0.00517302332446 -8.68073177337646 -2.47144341468811
v 0.00517302332446 -8.68073177337646 2.47144341468811
v -0.17257095873356 -8.75435638427734 -2.47144341468811
v -0.17257095873356 -8.75435638427734 2.47144341468811
v -0.24619492888451 -8.93210029602051 -2.47144341468811
v -0.24619492888451 -8.93210029602051 2.47144341468811
v -0.17257095873356 -9.10984420776367 -2.47144341468811
v -0.17257095873356 -9.10984420776367 2.47144341468811
v 0.00517302332446 -9.18346786499023 -2.47144341468811
v 0.00517302332446 -9.18346786499023 2.47144341468811
v 0.18291699886322 -9.10984420776367 -2.47144341468811
v 0.18291699886322 -9.10984420776367 2.47144341468811
v 12.02605628967285 -8.93210029602051 -2.47144341468811
v 12.02605628967285 -8.93210029602051 2.47144341468811
v 12.27742385864258 -8.93210029602051 -2.47144341468811
v 12.27742385864258 -8.93210029602051 2.47144341468811
v 12.20380020141602 -8.75435638427734 -2.47144341468811
v 12.20380020141602 -8.75435638427734 2.47144341468811
v 12.02605628967285 -8.68073177337646 -2.47144341468811
v 12.02605628967285 -8.68073177337646 2.47144341468811
v 11.84831237792969 -8.75435638427734 -2.47144341468811
v 11.84831237792969 -8.75435638427734 2.47144341468811
v 11.77468872070312 -8.93210029602051 -2.47144341468811
v 11.77468872070312 -8.93210029602051 2.47144341468811
v 11.84831237792969 -9.10984420776367 -2.47144341468811
v 11.84831237792969 -9.10984420776367 2.47144341468811
v 12.02605628967285 -9.18346786499023 -2.47144341468811
v 12.02605628967285 -9.18346786499023 2.47144341468811
v 12.20380020141602 -9.10984420776367 -2.47144341468811
v 12.20380020141602 -9.10984420776367 2.47144341468811
v 12.02605628967285 -8.93959522247314 0
v 12.02605628967285 8.93959522247314 0
v 12.27742385864258 -8.93959522247314 0
v 12.27742385864258 8.93959522247314 0
v 12.20380020141602 -8.93959522247314 -0.17774398624897
v 12.20380020141602 8.93959522247314 -0.17774398624897
v 12.02605628967285 -8.93959522247314 -0.25136795639992
v 12.02605628967285 8.93959522247314 -0.25136795639992
v 11.84831237792969 -8.93959522247314 -0.17774398624897
v 11.84831237792969 8.93959522247314 -0.17774398624897
v 11.77468872070312 -8.93959522247314 -0
v 11.77468872070312 8.93959522247314 -0
v 11.84831237792969 -8.93959522247314 0.17774398624897
v 11.84831237792969 8.93959522247314 0.17774398624897
v 12.02605628967285 -8.93959522247314 0.25136795639992
v 12.02605628967285 8.93959522247314 0.25136795639992
v 12.20380020141602 -8.93959522247314 0.17774398624897
v 12.20380020141602 8.93959522247314 0.17774398624897
v 0 -8.93959522247314 0
v 0 8.93959522247314 0
v 0.25136795639992 -8.93959522247314 0
v 0.25136795639992 8.93959522247314 0
v 0.17774398624897 -8.93959522247314 -0.17774398624897
v 0.17774398624897 8.93959522247314 -0.17774398624897
v 0 -8.93959522247314 -0.25136795639992
v 0 8.93959522247314 -0.25136795639992
v -0.17774398624897 -8.93959522247314 -0.17774398624897
v -0.17774398624897 8.93959522247314 -0.17774398624897
v -0.25136795639992 -8.93959522247314 -0
v -0.25136795639992 8.93959522247314 -0
v -0.17774398624897 -8.93959522247314 0.17774398624897
v -0.17774398624897 8.93959522247314 0.17774398624897
v 0 -8.93959522247314 0.25136795639992
v 0 8.93959522247314 0.25136795639992
v 0.17774398624897 -8.93959522247314 0.17774398624897
v 0.17774398624897 8.93959522247314 0.17774398624897
# 108 vertices

vn -1 0 0
vn 0 0 0
vn 0 -0.92388010025024 -0.38268202543259
vn 1 0 0
vn 0 -0.38268285989761 -0.92387980222702
vn 0 0.38268429040909 -0.92387920618057
vn 0 0.92387872934341 -0.38268545269966
vn 0 0.92387872934341 0.38268545269966
vn 0 0.38268429040909 0.92387920618057
vn 0 -0.38268285989761 0.92387980222702
vn 0 -0.92388010025024 0.38268202543259
vn 0 -0.92387872934341 -0.38268545269966
vn 0 -0.38268426060677 -0.92387920618057
vn 0 0.38268285989761 -0.92387980222702
vn 0 0.92388010025024 -0.38268202543259
vn 0 0.92388010025024 0.38268202543259
vn 0 0.38268285989761 0.92387980222702
vn 0 -0.38268426060677 0.92387920618057
vn 0 -0.92387872934341 0.38268545269966
vn 0 0 -1
vn 0.92387920618057 0.38268426060677 0
vn 0 0 1
vn 0.38268545269966 0.92387872934341 0
vn -0.38268545269966 0.92387872934341 0
vn -0.92387914657593 0.38268432021141 0
vn -0.92387974262238 -0.38268291950226 0
vn -0.38268205523491 -0.92388010025024 0
vn 0.38268205523491 -0.92388010025024 0
vn 0.92387974262238 -0.38268285989761 0
vn 0.92387837171555 0.38268625736237 0
vn 0.38268625736237 0.92387837171555 0
vn -0.38268488645554 0.92387890815735 0
vn -0.92387974262238 0.38268285989761 0
vn -0.92388033866882 -0.38268148899078 0
vn -0.38268148899078 -0.92388033866882 0
vn 0.38268285989761 -0.92387974262238 0
vn 0.92387890815735 -0.38268488645554 0
vn 0 -1 0
vn 0.92387866973877 0 -0.38268545269966
vn 0 1 0
vn 0.38268426060677 0 -0.92387920618057
vn -0.38268288969994 0 -0.92387974262238
vn -0.92388010025024 0 -0.38268205523491
vn -0.92388010025024 0 0.38268205523491
vn -0.38268288969994 0 0.92387974262238
vn 0.38268426060677 0 0.92387920618057
vn 0.92387866973877 0 0.38268545269966
vn 0.9238795042038 0 -0.38268345594406
vn 0.38268345594406 0 -0.9238795042038
vn -0.38268345594406 0 -0.9238795042038
vn -0.9238795042038 0 -0.38268345594406
vn -0.9238795042038 0 0.38268345594406
vn -0.38268345594406 0 0.9238795042038
vn 0.38268345594406 0 0.9238795042038
vn 0.9238795042038 0 0.38268345594406
# 55 normals

vt 0.3185493350029 0.64397430419922 0
vt 0.3185493350029 0.63005042076111 0
vt 0.30870369076729 0.63412863016129 0
vt 0.31526744365692 0.63605111837387 0
vt 0.83220541477203 0.89238512516022 0
vt 0.15471988916397 0.89238512516022 0
vt 0.15471988916397 0.89646333456039 0
vt 0.83220541477203 0.89646333456039 0
vt 0.3185493350029 0.66752678155899 0
vt 0.3185493350029 0.6814506649971 0
vt 0.32839500904083 0.67160499095917 0
vt 0.33186694979668 0.67435991764069 0
vt 0.30462548136711 0.64397430419922 0
vt 0.32066187262535 0.63224220275879 0
vt 0.15471988916397 0.90630900859833 0
vt 0.83220541477203 0.90630900859833 0
vt 0.33247321844101 0.6814506649971 0
vt 0.33186694979668 0.67438560724258 0
vt 0.30870369076729 0.65381991863251 0
vt 0.32066187262535 0.63226789236069 0
vt 0.15471988916397 0.91615468263626 0
vt 0.83220541477203 0.91615468263626 0
vt 0.32839500904083 0.69129633903503 0
vt 0.33186694979668 0.67441123723984 0
vt 0.3185493350029 0.65789812803268 0
vt 0.32066187262535 0.63229358196259 0
vt 0.15471988916397 0.92023289203644 0
vt 0.83220541477203 0.92023289203644 0
vt 0.3185493350029 0.69537454843521 0
vt 0.33186694979668 0.67442190647125 0
vt 0.32839500904083 0.65381991863251 0
vt 0.32066187262535 0.63230419158936 0
vt 0.15471988916397 0.88275647163391 0
vt 0.83220541477203 0.88275647163391 0
vt 0.83220541477203 0.87867832183838 0
vt 0.15471988916397 0.87867832183838 0
vt 0.30870369076729 0.69129633903503 0
vt 0.32733112573624 0.67441123723984 0
vt 0.33247321844101 0.64397430419922 0
vt 0.31612607836723 0.63229358196259 0
vt 0.83220541477203 0.8688325881958 0
vt 0.15471988916397 0.8688325881958 0
vt 0.30462548136711 0.6814506649971 0
vt 0.32733112573624 0.67438560724258 0
vt 0.32839500904083 0.63412863016129 0
vt 0.31612607836723 0.63226789236069 0
vt 0.83220541477203 0.85898697376251 0
vt 0.15471988916397 0.85898697376251 0
vt 0.30870369076729 0.67160499095917 0
vt 0.32733112573624 0.67435991764069 0
vt 0.31612607836723 0.63224220275879 0
vt 0.83220541477203 0.85490876436234 0
vt 0.15471988916397 0.85490876436234 0
vt 0.32733112573624 0.67434930801392 0
vt 0.3560257256031 0.75640344619751 0
vt 0.3560257256031 0.7424795627594 0
vt 0.34618008136749 0.74655777215958 0
vt 0.35360246896744 0.74466079473495 0
vt 0.15471988916397 0.98126178979874 0
vt 0.94331020116806 0.98126178979874 0
vt 0.94331020116806 0.9714161157608 0
vt 0.15471988916397 0.9714161157608 0
vt 0.3560257256031 0.81743240356445 0
vt 0.3560257256031 0.83135622739792 0
vt 0.36587139964104 0.82151055335999 0
vt 0.36948814988136 0.82657158374786 0
vt 0.34210187196732 0.75640344619751 0
vt 0.35828310251236 0.74697750806808 0
vt 0.94331020116806 0.96733790636063 0
vt 0.15471988916397 0.96733790636063 0
vt 0.36994960904121 0.83135622739792 0
vt 0.36948814988136 0.82659721374512 0
vt 0.34618008136749 0.76624912023544 0
vt 0.35828310251236 0.74700319766998 0
vt 0.15471988916397 0.95770931243896 0
vt 0.94331020116806 0.95770931243896 0
vt 0.94331020116806 0.95363110303879 0
vt 0.15471988916397 0.95363110303879 0
vt 0.36587139964104 0.84120190143585 0
vt 0.36948814988136 0.82662296295166 0
vt 0.3560257256031 0.77032732963562 0
vt 0.35828310251236 0.74702882766724 0
vt 0.94331020116806 0.94378542900085 0
vt 0.15471988916397 0.94378542900085 0
vt 0.3560257256031 0.84528011083603 0
vt 0.36948814988136 0.82663357257843 0
vt 0.36587139964104 0.76624912023544 0
vt 0.35828310251236 0.74703949689865 0
vt 0.94331020116806 0.93393975496292 0
vt 0.15471988916397 0.93393975496292 0
vt 0.34618008136749 0.84120190143585 0
vt 0.36466270685196 0.82662296295166 0
vt 0.36994960904121 0.75640344619751 0
vt 0.35345762968063 0.74702882766724 0
vt 0.94331020116806 0.92986154556274 0
vt 0.15471988916397 0.92986154556274 0
vt 0.34210187196732 0.83135622739792 0
vt 0.36466270685196 0.82659721374512 0
vt 0.36587139964104 0.74655777215958 0
vt 0.35345762968063 0.74700319766998 0
vt 0.15471988916397 0.99518567323685 0
vt 0.94331020116806 0.99518567323685 0
vt 0.94331020116806 0.99110746383667 0
vt 0.15471988916397 0.99110746383667 0
vt 0.34618008136749 0.82151055335999 0
vt 0.36466270685196 0.82657158374786 0
vt 0.35345762968063 0.74697750806808 0
vt 0.36466270685196 0.82656097412109 0
vt 0.3185493350029 0.75640344619751 0
vt 0.30462548136711 0.75640344619751 0
vt 0.30870369076729 0.76624912023544 0
vt 0.31133994460106 0.758171916008 0
vt 0.18256764113903 0.84528011083603 0
vt 0.18256764113903 0.57148170471191 0
vt 0.17848943173885 0.57148170471191 0
vt 0.17848943173885 0.84528011083603 0
vt 0.33247321844101 0.71892708539963 0
vt 0.3185493350029 0.71892708539963 0
vt 0.32839500904083 0.72877275943756 0
vt 0.32995593547821 0.71817249059677 0
vt 0.3185493350029 0.77032732963562 0
vt 0.31410956382751 0.75564885139465 0
vt 0.16864377260208 0.57148170471191 0
vt 0.16864377260208 0.84528011083603 0
vt 0.3185493350029 0.73285096883774 0
vt 0.32736098766327 0.72148191928864 0
vt 0.32839500904083 0.76624912023544 0
vt 0.31151461601257 0.75895833969116 0
vt 0.15879809856415 0.57148170471191 0
vt 0.15879809856415 0.84528011083603 0
vt 0.30870369076729 0.72877275943756 0
vt 0.32733532786369 0.72148191928864 0
vt 0.33247321844101 0.75640344619751 0
vt 0.311488956213 0.75895833969116 0
vt 0.15471988916397 0.57148170471191 0
vt 0.15471988916397 0.84528011083603 0
vt 0.30462548136711 0.71892708539963 0
vt 0.32647252082825 0.71814680099487 0
vt 0.32839500904083 0.74655777215958 0
vt 0.31062614917755 0.7556232213974 0
vt 0.19219629466534 0.57148170471191 0
vt 0.19219629466534 0.84528011083603 0
vt 0.19627450406551 0.84528011083603 0
vt 0.19627450406551 0.57148170471191 0
vt 0.30870369076729 0.70908141136169 0
vt 0.32647252082825 0.71812117099762 0
vt 0.3185493350029 0.7424795627594 0
vt 0.31062614917755 0.7555975317955 0
vt 0.20612016320229 0.84528011083603 0
vt 0.20612016320229 0.57148170471191 0
vt 0.3185493350029 0.70500320196152 0
vt 0.32736098766327 0.71739673614502 0
vt 0.30870369076729 0.74655777215958 0
vt 0.31151461601257 0.7548730969429 0
vt 0.21596583724022 0.84528011083603 0
vt 0.21596583724022 0.57148170471191 0
vt 0.32839500904083 0.70908141136169 0
vt 0.32738664746284 0.71739673614502 0
vt 0.31154030561447 0.7548730969429 0
vt 0.22004403173923 0.84528011083603 0
vt 0.22004403173923 0.57148170471191 0
vt 0.32995593547821 0.71814680099487 0
vt 0.3560257256031 0.64397430419922 0
vt 0.34210187196732 0.64397430419922 0
vt 0.34618008136749 0.65381991863251 0
vt 0.35158595442772 0.64319401979446 0
vt 0.2575204372406 0.84528011083603 0
vt 0.2575204372406 0.57148170471191 0
vt 0.25344222784042 0.57148170471191 0
vt 0.25344222784042 0.84528011083603 0
vt 0.36994960904121 0.6814506649971 0
vt 0.3560257256031 0.6814506649971 0
vt 0.36587139964104 0.69129633903503 0
vt 0.36743232607841 0.68069607019424 0
vt 0.3560257256031 0.65789812803268 0
vt 0.35158595442772 0.64321970939636 0
vt 0.24359655380249 0.57148170471191 0
vt 0.24359655380249 0.84528011083603 0
vt 0.3560257256031 0.69537454843521 0
vt 0.36657327413559 0.68400555849075 0
vt 0.36587139964104 0.65381991863251 0
vt 0.35072690248489 0.64652913808823 0
vt 0.23375089466572 0.57148170471191 0
vt 0.23375089466572 0.84528011083603 0
vt 0.34618008136749 0.69129633903503 0
vt 0.36654761433601 0.68400555849075 0
vt 0.36994960904121 0.64397430419922 0
vt 0.35070124268532 0.64652913808823 0
vt 0.22967268526554 0.57148170471191 0
vt 0.22967268526554 0.84528011083603 0
vt 0.34210187196732 0.6814506649971 0
vt 0.36394891142845 0.68067044019699 0
vt 0.36587139964104 0.63412863016129 0
vt 0.34810256958008 0.64319401979446 0
vt 0.26714906096458 0.57148170471191 0
vt 0.26714906096458 0.84528011083603 0
vt 0.27122727036476 0.84528011083603 0
vt 0.27122727036476 0.57148170471191 0
vt 0.34618008136749 0.67160499095917 0
vt 0.36394891142845 0.68064475059509 0
vt 0.3560257256031 0.63005042076111 0
vt 0.34810256958008 0.64316833019257 0
vt 0.28107294440269 0.84528011083603 0
vt 0.28107294440269 0.57148170471191 0
vt 0.3560257256031 0.66752678155899 0
vt 0.36657327413559 0.67992031574249 0
vt 0.34618008136749 0.63412863016129 0
vt 0.35072690248489 0.64244395494461 0
vt 0.29091861844063 0.84528011083603 0
vt 0.29091861844063 0.57148170471191 0
vt 0.36587139964104 0.67160499095917 0
vt 0.36659893393517 0.67992031574249 0
vt 0.35075259208679 0.64244395494461 0
vt 0.29499682784081 0.84528011083603 0
vt 0.29499682784081 0.57148170471191 0
vt 0.36743232607841 0.68067044019699 0
vt 0.3560257256031 0.71892708539963 0
vt 0.36994960904121 0.71892708539963 0
vt 0.36587139964104 0.70908141136169 0
vt 0.36743232607841 0.71158301830292 0
vt 0.07976710796356 0.0048143863678 0
vt 0.07976710796356 0.99518567323685 0
vt 0.08384531736374 0.99518567323685 0
vt 0.08384531736374 0.0048143863678 0
vt 0.36994960904121 0.79387986660004 0
vt 0.3560257256031 0.79387986660004 0
vt 0.36587139964104 0.80372548103333 0
vt 0.36755192279816 0.79309850931168 0
vt 0.3560257256031 0.70500320196152 0
vt 0.36755192279816 0.71158194541931 0
vt 0.09369098395109 0.99518567323685 0
vt 0.09369098395109 0.0048143863678 0
vt 0.3560257256031 0.80780375003815 0
vt 0.36757758259773 0.79309850931168 0
vt 0.34618008136749 0.70908141136169 0
vt 0.36757758259773 0.71158194541931 0
vt 0.10353665053844 0.99518567323685 0
vt 0.10353665053844 0.0048143863678 0
vt 0.34618008136749 0.80372548103333 0
vt 0.36760324239731 0.79309850931168 0
vt 0.34210187196732 0.71892708539963 0
vt 0.36760324239731 0.71158194541931 0
vt 0.10761485993862 0.99518567323685 0
vt 0.10761485993862 0.0048143863678 0
vt 0.34210187196732 0.79387986660004 0
vt 0.3676138818264 0.79309850931168 0
vt 0.34618008136749 0.72877275943756 0
vt 0.3676138818264 0.71158194541931 0
vt 0.11724349856377 0.0048143863678 0
vt 0.11724349856377 0.99518567323685 0
vt 0.12132170796394 0.99518567323685 0
vt 0.12132170796394 0.0048143863678 0
vt 0.34618008136749 0.78403413295746 0
vt 0.36654761433601 0.79309850931168 0
vt 0.3560257256031 0.73285096883774 0
vt 0.36654761433601 0.71158194541931 0
vt 0.13116738200188 0.99518567323685 0
vt 0.13116738200188 0.0048143863678 0
vt 0.3560257256031 0.77995598316193 0
vt 0.36657327413559 0.79309850931168 0
vt 0.36587139964104 0.72877275943756 0
vt 0.36657327413559 0.71158194541931 0
vt 0.14101304113865 0.99518567323685 0
vt 0.14101304113865 0.0048143863678 0
vt 0.36587139964104 0.78403413295746 0
vt 0.36659893393517 0.79309850931168 0
vt 0.36659893393517 0.71158194541931 0
vt 0.14509125053883 0.99518567323685 0
vt 0.14509125053883 0.0048143863678 0
vt 0.36660957336426 0.79309850931168 0
vt 0.3185493350029 0.79387986660004 0
vt 0.33247321844101 0.79387986660004 0
vt 0.32839500904083 0.78403413295746 0
vt 0.32913318276405 0.78653472661972 0
vt 0.01873819716275 0.0048143863678 0
vt 0.01873819716275 0.99518567323685 0
vt 0.0285838637501 0.99518567323685 0
vt 0.0285838637501 0.0048143863678 0
vt 0.33247321844101 0.83135622739792 0
vt 0.3185493350029 0.83135622739792 0
vt 0.32839500904083 0.84120190143585 0
vt 0.33181217312813 0.83057487010956 0
vt 0.3185493350029 0.77995598316193 0
vt 0.33181217312813 0.78653472661972 0
vt 0.03266207128763 0.99518567323685 0
vt 0.03266207128763 0.0048143863678 0
vt 0.3185493350029 0.84528011083603 0
vt 0.3318378329277 0.83057487010956 0
vt 0.30870369076729 0.78403413295746 0
vt 0.3318378329277 0.78653472661972 0
vt 0.04229071363807 0.0048143863678 0
vt 0.04229071363807 0.99518567323685 0
vt 0.04636892303824 0.99518567323685 0
vt 0.04636892303824 0.0048143863678 0
vt 0.30870369076729 0.84120190143585 0
vt 0.33186349272728 0.83057487010956 0
vt 0.30462548136711 0.79387986660004 0
vt 0.33186349272728 0.78653472661972 0
vt 0.0562145896256 0.99518567323685 0
vt 0.0562145896256 0.0048143863678 0
vt 0.30462548136711 0.83135622739792 0
vt 0.33187413215637 0.83057487010956 0
vt 0.30870369076729 0.80372548103333 0
vt 0.33187413215637 0.78653472661972 0
vt 0.06606025993824 0.99518567323685 0
vt 0.06606025993824 0.0048143863678 0
vt 0.30870369076729 0.82151055335999 0
vt 0.32733458280563 0.83057487010956 0
vt 0.3185493350029 0.80780375003815 0
vt 0.32733458280563 0.78653472661972 0
vt 0.07013846188784 0.99518567323685 0
vt 0.07013846188784 0.0048143863678 0
vt 0.3185493350029 0.81743240356445 0
vt 0.32736024260521 0.83057487010956 0
vt 0.32839500904083 0.80372548103333 0
vt 0.32736024260521 0.78653472661972 0
vt 0.00481432164088 0.0048143863678 0
vt 0.00481432164088 0.99518567323685 0
vt 0.00889253057539 0.99518567323685 0
vt 0.00889253057539 0.0048143863678 0
vt 0.32839500904083 0.82151055335999 0
vt 0.32738590240479 0.83057487010956 0
vt 0.32738590240479 0.78653472661972 0
vt 0.32739654183388 0.83057487010956 0
# 324 texture coordinates

o Null.1
usemtl Mat
f 5/3/1 3/2/1 1/1/1
f 5/8/3 6/7/3 4/6/3 3/5/3
f 6/11/4 2/10/4 4/9/4
f 7/13/1 5/3/1 1/1/1
f 7/16/5 8/15/5 6/7/5 5/8/5
f 8/17/4 2/10/4 6/11/4
f 9/19/1 7/13/1 1/1/1
f 9/22/6 10/21/6 8/15/6 7/16/6
f 10/23/4 2/10/4 8/17/4
f 11/25/1 9/19/1 1/1/1
f 11/28/7 12/27/7 10/21/7 9/22/7
f 12/29/4 2/10/4 10/23/4
f 13/31/1 11/25/1 1/1/1
f 13/36/8 14/35/8 12/34/8 11/33/8
f 14/37/4 2/10/4 12/29/4
f 15/39/1 13/31/1 1/1/1
f 15/42/9 16/41/9 14/35/9 13/36/9
f 16/43/4 2/10/4 14/37/4
f 17/45/1 15/39/1 1/1/1
f 17/48/10 18/47/10 16/41/10 15/42/10
f 18/49/4 2/10/4 16/43/4
f 3/2/1 17/45/1 1/1/1
f 3/53/11 4/52/11 18/47/11 17/48/11
f 4/9/4 2/10/4 18/49/4
f 23/57/1 21/56/1 19/55/1
f 23/62/12 24/61/12 22/60/12 21/59/12
f 24/65/4 20/64/4 22/63/4
f 25/67/1 23/57/1 19/55/1
f 25/70/13 26/69/13 24/61/13 23/62/13
f 26/71/4 20/64/4 24/65/4
f 27/73/1 25/67/1 19/55/1
f 27/78/14 28/77/14 26/76/14 25/75/14
f 28/79/4 20/64/4 26/71/4
f 29/81/1 27/73/1 19/55/1
f 29/84/15 30/83/15 28/77/15 27/78/15
f 30/85/4 20/64/4 28/79/4
f 31/87/1 29/81/1 19/55/1
f 31/90/16 32/89/16 30/83/16 29/84/16
f 32/91/4 20/64/4 30/85/4
f 33/93/1 31/87/1 19/55/1
f 33/96/17 34/95/17 32/89/17 31/90/17
f 34/97/4 20/64/4 32/91/4
f 35/99/1 33/93/1 19/55/1
f 35/104/18 36/103/18 34/102/18 33/101/18
f 36/105/4 20/64/4 34/97/4
f 21/56/1 35/99/1 19/55/1
f 21/59/19 22/60/19 36/103/19 35/104/19
f 22/63/4 20/64/4 36/105/4
f 41/111/20 39/110/20 37/109/20
f 41/116/21 42/115/21 40/114/21 39/113/21
f 42/119/22 38/118/22 40/117/22
f 43/121/20 41/111/20 37/109/20
f 43/124/23 44/123/23 42/115/23 41/116/23
f 44/125/22 38/118/22 42/119/22
f 45/127/20 43/121/20 37/109/20
f 45/130/24 46/129/24 44/123/24 43/124/24
f 46/131/22 38/118/22 44/125/22
f 47/133/20 45/127/20 37/109/20
f 47/136/25 48/135/25 46/129/25 45/130/25
f 48/137/22 38/118/22 46/131/22
f 49/139/20 47/133/20 37/109/20
f 49/144/26 50/143/26 48/142/26 47/141/26
f 50/145/22 38/118/22 48/137/22
f 51/147/20 49/139/20 37/109/20
f 51/150/27 52/149/27 50/143/27 49/144/27
f 52/151/22 38/118/22 50/145/22
f 53/153/20 51/147/20 37/109/20
f 53/156/28 54/155/28 52/149/28 51/150/28
f 54/157/22 38/118/22 52/151/22
f 39/110/20 53/153/20 37/109/20
f 39/161/29 40/160/29 54/155/29 53/156/29
f 40/117/22 38/118/22 54/157/22
f 59/165/20 57/164/20 55/163/20
f 59/170/30 60/169/30 58/168/30 57/167/30
f 60/173/22 56/172/22 58/171/22
f 61/175/20 59/165/20 55/163/20
f 61/178/31 62/177/31 60/169/31 59/170/31
f 62/179/22 56/172/22 60/173/22
f 63/181/20 61/175/20 55/163/20
f 63/184/32 64/183/32 62/177/32 61/178/32
f 64/185/22 56/172/22 62/179/22
f 65/187/20 63/181/20 55/163/20
f 65/190/33 66/189/33 64/183/33 63/184/33
f 66/191/22 56/172/22 64/185/22
f 67/193/20 65/187/20 55/163/20
f 67/198/34 68/197/34 66/196/34 65/195/34
f 68/199/22 56/172/22 66/191/22
f 69/201/20 67/193/20 55/163/20
f 69/204/35 70/203/35 68/197/35 67/198/35
f 70/205/22 56/172/22 68/199/22
f 71/207/20 69/201/20 55/163/20
f 71/210/36 72/209/36 70/203/36 69/204/36
f 72/211/22 56/172/22 70/205/22
f 57/164/20 71/207/20 55/163/20
f 57/215/37 58/214/37 72/209/37 71/210/37
f 58/171/22 56/172/22 72/211/22
f 77/219/38 75/218/38 73/217/38
f 77/224/39 78/223/39 76/222/39 75/221/39
f 78/227/40 74/226/40 76/225/40
f 79/229/38 77/219/38 73/217/38
f 79/232/41 80/231/41 78/223/41 77/224/41
f 80/233/40 74/226/40 78/227/40
f 81/235/38 79/229/38 73/217/38
f 81/238/42 82/237/42 80/231/42 79/232/42
f 82/239/40 74/226/40 80/233/40
f 83/241/38 81/235/38 73/217/38
f 83/244/43 84/243/43 82/237/43 81/238/43
f 84/245/40 74/226/40 82/239/40
f 85/247/38 83/241/38 73/217/38
f 85/252/44 86/251/44 84/250/44 83/249/44
f 86/253/40 74/226/40 84/245/40
f 87/255/38 85/247/38 73/217/38
f 87/258/45 88/257/45 86/251/45 85/252/45
f 88/259/40 74/226/40 86/253/40
f 89/261/38 87/255/38 73/217/38
f 89/264/46 90/263/46 88/257/46 87/258/46
f 90/265/40 74/226/40 88/259/40
f 75/218/38 89/261/38 73/217/38
f 75/269/47 76/268/47 90/263/47 89/264/47
f 76/225/40 74/226/40 90/265/40
f 95/273/38 93/272/38 91/271/38
f 95/278/48 96/277/48 94/276/48 93/275/48
f 96/281/40 92/280/40 94/279/40
f 97/283/38 95/273/38 91/271/38
f 97/286/49 98/285/49 96/277/49 95/278/49
f 98/287/40 92/280/40 96/281/40
f 99/289/38 97/283/38 91/271/38
f 99/294/50 100/293/50 98/292/50 97/291/50
f 100/295/40 92/280/40 98/287/40
f 101/297/38 99/289/38 91/271/38
f 101/300/51 102/299/51 100/293/51 99/294/51
f 102/301/40 92/280/40 100/295/40
f 103/303/38 101/297/38 91/271/38
f 103/306/52 104/305/52 102/299/52 101/300/52
f 104/307/40 92/280/40 102/301/40
f 105/309/38 103/303/38 91/271/38
f 105/312/53 106/311/53 104/305/53 103/306/53
f 106/313/40 92/280/40 104/307/40
f 107/315/38 105/309/38 91/271/38
f 107/320/54 108/319/54 106/318/54 105/317/54
f 108/321/40 92/280/40 106/313/40
f 93/272/38 107/315/38 91/271/38
f 93/275/55 94/276/55 108/319/55 107/320/55
f 94/279/40 92/280/40 108/321/40

