# WaveFront *.obj file (generated by CINEMA 4D)

mtllib ./dumping.mtl

v -9.1029109954834 0.32786843180656 10
v -9.1029109954834 -0.32786843180656 10
v 9.17774486541748 0.32786843180656 10
v 9.17774486541748 -0.32786843180656 10
v 10 0.32786843180656 -9.12719535827637
v 10 -0.32786843180656 -9.12719535827637
v 10 0.32786843180656 9.15932083129883
v 10 -0.32786843180656 9.15932083129883
v -9.27751350402832 0.32786843180656 -10
v -9.27751350402832 -0.32786843180656 -10
v 9.10763931274414 0.32786843180656 -10
v 9.10763931274414 -0.32786843180656 -10
v -10 0.32786843180656 9.12257099151611
v -10 -0.32786843180656 9.12257099151611
v -10 0.32786843180656 -9.26132583618164
v -10 -0.32786843180656 -9.26132583618164
v -9.1029109954834 0.32786843180656 10
v -9.1029109954834 -0.32786843180656 10
v -10 0.32786843180656 9.12257099151611
v -10 0.32786843180656 -9.26132583618164
v -10 -0.32786843180656 -9.26132583618164
v 9.10763931274414 0.32786843180656 -10
v 9.10763931274414 -0.32786843180656 -10
v 9.17774486541748 -0.32786843180656 10
# 24 vertices

vn 0 0 1
vn 1 0 0
vn 0 0 -1
vn -1 0 0
vn 0 1 0
vn 0 -1 0
vn -0.69922971725464 0 0.71489709615707
vn -0.71489685773849 0 -0.69922989606857
vn 0.69922989606857 0 -0.71489691734314
vn 0.71489691734314 -0 0.69922989606857
# 10 normals

vt 0.52778708934784 0.90262925624847 0
vt 0.98998534679413 0.90262925624847 0
vt 0.98998534679413 0.88670033216476 0
vt 0.52778708934784 0.88670033216476 0
vt 0.99013352394104 0.91679608821869 0
vt 0.52778708934784 0.91679608821869 0
vt 0.52778708934784 0.93272507190704 0
vt 0.99013352394104 0.93272507190704 0
vt 0.99262738227844 0.97698765993118 0
vt 0.52778708934784 0.97698765993118 0
vt 0.52778708934784 0.99291658401489 0
vt 0.99262738227844 0.99291658401489 0
vt 0.99259561300278 0.94689190387726 0
vt 0.52778708934784 0.94689190387726 0
vt 0.52778708934784 0.96282082796097 0
vt 0.99259561300278 0.96282082796097 0
vt 0.49047985672951 0.99291658401489 0
vt 0.51304185390472 0.97171473503113 0
vt 0.51304185390472 0.52750492095947 0
vt 0.02563958056271 0.99291658401489 0
vt 0.0073726256378 0.97497296333313 0
vt 0.0073726256378 0.52839761972427 0
vt 0.03005412779748 0.50708341598511 0
vt 0.49225237965584 0.50708341598511 0
vt 0.03005412779748 0.49291658401489 0
vt 0.49225237965584 0.49291658401489 0
vt 0.51304185390472 0.47249507904053 0
vt 0.0073726256378 0.47160243988037 0
vt 0.49047985672951 0.00708341598511 0
vt 0.02563958056271 0.00708341598511 0
vt 0.0073726256378 0.02502703666687 0
vt 0.51304185390472 0.02828538417816 0
vt 0.55046862363815 0.85660457611084 0
vt 0.52778708934784 0.85660457611084 0
vt 0.52778708934784 0.87253350019455 0
vt 0.55046862363815 0.87253350019455 0
vt 0.54646331071854 0.78224623203278 0
vt 0.54646331071854 0.76631724834442 0
vt 0.52778708934784 0.76631724834442 0
vt 0.52778708934784 0.78224623203278 0
vt 0.52778708934784 0.84243774414062 0
vt 0.55034905672073 0.84243774414062 0
vt 0.55034905672073 0.82650876045227 0
vt 0.52778708934784 0.82650876045227 0
vt 0.54904234409332 0.81234192848206 0
vt 0.54904234409332 0.79641306400299 0
vt 0.52778708934784 0.79641306400299 0
vt 0.52778708934784 0.81234192848206 0
# 48 texture coordinates

o Boole
usemtl Boole
f 2/4/1 4/3/1 3/2/1 1/1/1
f 5/8/2 7/7/2 8/6/2 6/5/2
f 9/12/3 11/11/3 12/10/3 10/9/3
f 13/16/4 15/15/4 16/14/4 14/13/4
f 9/20/5 7/19/5 5/18/5 11/17/5
f 13/22/5 7/19/5 9/20/5 15/21/5
f 3/24/5 7/19/5 13/22/5 1/23/5
f 14/28/6 8/27/6 4/26/6 2/25/6
f 14/28/6 16/31/6 10/30/6 12/29/6
f 8/27/6 14/28/6 12/29/6 6/32/6
f 17/36/7 19/35/7 14/34/7 18/33/7
f 9/40/8 10/39/8 21/38/8 20/37/8
f 6/44/9 23/43/9 22/42/9 5/41/9
f 3/48/10 24/47/10 8/46/10 7/45/10

