# WaveFront *.obj file (generated by CINEMA 4D)

mtllib ./paperairplane.mtl

v -20 0 20
v 20 0 20
v -20 0 14.72095966339111
v 20 0 14.72095966339111
v 0.00141810718924 -9.28476142883301 20
v 0.00141810718924 -0.40108215808868 -29.98917961120605
v 0.17056153714657 0 -29.60788917541504
v 1.38881313800812 0 20
v -0.13366675376892 0 -29.69036674499512
v -1.37675869464874 0 20
v 1.05197167396545 0 6.28362464904785
v 20 0 15.08538341522217
v 0.00141810718924 -6.82846117019653 6.17819881439209
v -1.03304886817932 0 6.26081943511963
v -20 0 15.08538341522217
v -20 0.32558989524841 14.72095966339111
v 20 0.32558989524841 14.72095966339111
v 0.00242951884866 -0.07549224793911 -29.98917961120605
v 0.15030373632908 0.32558989524841 -29.60788917541504
v -0.11566887795925 0.32558989524841 -29.69036674499512
v 0.92087960243225 0.32558989524841 6.28362464904785
v 20 0.32558989524841 15.08538341522217
v 0.00242951884866 -6.50287103652954 6.17819881439209
v -0.90195685625076 0.32558989524841 6.26081943511963
v -20 0.32558989524841 15.08538341522217
# 25 vertices

vn -0.97245359420776 0.23205052316189 0.02205725945532
vn 0 1 0
vn 0.98091387748718 0.19158016145229 0.03324228525162
vn -0.98840409517288 0.14967109262943 0.02561092562973
vn 0.98864436149597 0.1481110304594 0.0254059638828
vn 0.9126872420311 0.02687991783023 -0.40777373313904
vn 0.912537753582 0.02762165293097 -0.40805864334106
vn -0.24970337748528 -0.0451949313283 0.96726709604263
vn -0.0109969843179 -0.00505002168939 0.99992680549622
vn -1 0 0
vn -0.97787368297577 0.01288582570851 -0.20879888534546
vn -0.91012632846832 0.02555810473859 -0.41354176402092
vn 0.23931185901165 -0.045210365206 0.96988964080811
vn 0.41915008425713 -0.08402033895254 0.90402090549469
vn -0.90774917602539 0.02591395750642 -0.41871216893196
vn 0.9778516292572 0.01450290158391 -0.20879609882832
vn 1 0 0
vn -0.41863775253296 -0.08344770222902 0.90431129932404
# 18 normals

vt 0.00937942788005 0.25380980968475 0
vt 0.01551134884357 0.25922703742981 0
vt 0.59271782636642 0.25922703742981 0
vt 0.59102237224579 0.16699886322021 0
vt 0.00937942788005 0.38736200332642 0
vt 0.00937942788005 0.39228403568268 0
vt 0.32915878295898 0.99212270975113 0
vt 0.31651371717453 0.50655031204224 0
vt 0.9906205534935 0.87324231863022 0
vt 0.9906205534935 0.80686336755753 0
vt 0.69131588935852 0.80686336755753 0
vt 0.6858988404274 0.99212270975113 0
vt 0.5875455737114 0.15124416351318 0
vt 0.59235107898712 0.14582705497742 0
vt 0.01070812996477 0.05901610851288 0
vt 0.00937942788005 0.15124416351318 0
vt 0.36031001806259 0.50735628604889 0
vt 0.34791761636734 0.99212270975113 0
vt 0.6671399474144 0.39339804649353 0
vt 0.6671399474144 0.38847589492798 0
vt 0.68759429454803 0.79110872745514 0
vt 0.90818071365356 0.79110872745514 0
vt 0.90818071365356 0.66570472717285 0
vt 0.6858988404274 0.69888061285019 0
vt 0.90818071365356 0.55772197246552 0
vt 0.6858988404274 0.52454608678818 0
vt 0.6858988404274 0.64995014667511 0
vt 0.90685200691223 0.64995014667511 0
vt 0.97644340991974 0.37160730361938 0
vt 0.9709158539772 0.18604004383087 0
vt 0.67141735553741 0.18604004383087 0
vt 0.67141735553741 0.25241899490356 0
vt 0.73426747322083 0.01227486133575 0
vt 0.73426747322083 0.00787734985352 0
vt 0.72813558578491 0.01329457759857 0
vt 0.72813558578491 0.01769208908081 0
vt 0.34582850337029 0.37160730361938 0
vt 0.34793674945831 0.36720979213715 0
vt 0.33104175329208 0.27498161792755 0
vt 0.33105802536011 0.27937912940979 0
vt 0.73426747322083 0.04326140880585 0
vt 0.73426747322083 0.03886389732361 0
vt 0.72840684652328 0.03886389732361 0
vt 0.72840684652328 0.04326140880585 0
vt 0.01418493129313 0.03886389732361 0
vt 0.01418493129313 0.04326140880585 0
vt 0.31651371717453 0.37160730361938 0
vt 0.31440550088882 0.36720979213715 0
vt 0.00937942788005 0.36720979213715 0
vt 0.00937942788005 0.37160730361938 0
vt 0.00937942788005 0.03344666957855 0
vt 0.00937942788005 0.03784430027008 0
vt 0.01524008065462 0.01329457759857 0
vt 0.01524008065462 0.01769208908081 0
vt 0.00937942788005 0.01329457759857 0
vt 0.00937942788005 0.01769208908081 0
vt 0.65265846252441 0.37160730361938 0
vt 0.65265846252441 0.36720979213715 0
# 58 texture coordinates

o Plane.1
usemtl Plane
f 23/4/1 21/3/1 19/2/1 18/1/1
f 24/8/2 20/7/2 16/6/2 25/5/2
f 11/12/2 8/11/2 2/10/2 12/9/2
f 24/16/3 23/15/3 18/14/3 20/13/3
f 22/20/2 17/19/2 19/18/2 21/17/2
f 13/24/4 5/23/4 8/22/4 11/21/4
f 14/28/5 10/27/5 5/26/5 13/25/5
f 15/32/2 1/31/2 10/30/2 14/29/2
f 19/36/7 7/35/7 6/34/6 18/33/6
f 23/40/9 13/39/9 11/38/8 21/37/8
f 16/44/11 3/43/11 15/42/10 25/41/10
f 20/46/12 9/45/12 3/43/11 16/44/11
f 25/50/14 15/49/14 14/48/13 24/47/13
f 18/52/15 6/51/15 9/45/12 20/46/12
f 24/47/13 14/48/13 13/39/9 23/40/9
f 17/54/16 4/53/16 7/35/7 19/36/7
f 22/56/17 12/55/17 4/53/16 17/54/16
f 21/37/8 11/38/8 12/58/18 22/57/18

